<svg xmlns="http://www.w3.org/2000/svg" width="44" height="75" version="1.0" viewBox="0 0 1460 2485" stroke-width="0" stroke="currentColor" fill="currentColor" stroke-linecap="round" stroke-linejoin="round">
<!--
 <defs>
  <style type="text/css">
   
    .fil0 {fill:none}
   
  </style>
 </defs>
-->
  <path class="fil0" d="m688 2237c145-348 108-1342 135-1807 150 199 660 828 388 1187-47 62-82 83-124 127 56 41 161-97 194-137 41-49 96-154 127-232 222-560-319-843-532-1152-151-219-55-226-149-222-18 39-28 165-29 207l14 658-6 687-20 280c-157-16-385 14-513 110-164 124-222 326-128 450 150 200 562 39 643-156z"/>
</svg>